Coordinates
version=1
nRows=31
nColumns=34
inDegrees=no

Units are S.I. units (second, meters, Newtons, ...)
If the header above contains a line with 'inDegrees', this indicates whether rotational values are in degrees (yes) or radians (no).

endheader
time	pelvis_tilt	pelvis_list	pelvis_rotation	pelvis_tx	pelvis_ty	pelvis_tz	hip_flexion_r	hip_adduction_r	hip_rotation_r	knee_angle_r	ankle_angle_r	subtalar_angle_r	mtp_angle_r	hip_flexion_l	hip_adduction_l	hip_rotation_l	knee_angle_l	ankle_angle_l	subtalar_angle_l	mtp_angle_l	lumbar_extension	lumbar_bending	lumbar_rotation	arm_flex_r	arm_add_r	arm_rot_r	elbow_flex_r	pro_sup_r	arm_flex_l	arm_add_l	arm_rot_l	elbow_flex_l	pro_sup_l
0.94	0.030667	0.0819283	0.0310531	0.980051	1.05725	-0.207128	0.520425	-0.154541	-0.0557976	0.970147	0.121185	-0.152866	-0.0180135	-0.0579173	0.151801	0.10758	0.0274865	0.136749	-0.0226674	-0.0180286	-0.135723	-0.0953422	-0.128933	-0.0849194	-0.176699	0.0535343	0.484635	1.70365	0.170291	-0.290511	0.157648	0.776019	1.60534
0.95	0.0303234	0.0770205	0.0348285	0.991483	1.05667	-0.207328	0.520324	-0.146889	-0.0592063	0.90751	0.128775	-0.128286	-0.0180136	-0.0679904	0.146043	0.108141	0.0326609	0.15341	-0.0162385	-0.0180287	-0.136994	-0.0889086	-0.132819	-0.0904303	-0.176218	0.0514984	0.474399	1.70053	0.18484	-0.292481	0.150407	0.79414	1.60331
0.96	0.0302115	0.0721694	0.0377682	1.00306	1.05595	-0.207439	0.517301	-0.139124	-0.0629608	0.839824	0.132991	-0.100253	-0.0180136	-0.0788285	0.140245	0.107232	0.0373264	0.170343	-0.00850201	-0.0180288	-0.138156	-0.0825729	-0.135808	-0.0959752	-0.175854	0.0493804	0.464752	1.69722	0.198393	-0.294364	0.144494	0.812226	1.60084
0.97	0.0303832	0.0673179	0.0400323	1.01479	1.05511	-0.207471	0.511189	-0.131227	-0.0675856	0.767223	0.13407	-0.0691563	-0.0180137	-0.0905648	0.134357	0.105102	0.0413329	0.187437	0.00034898	-0.0180289	-0.139296	-0.0762796	-0.13809	-0.101544	-0.175615	0.0472467	0.455725	1.69397	0.210886	-0.296223	0.139831	0.830344	1.59807
0.98	0.0308493	0.0624123	0.0418204	1.02668	1.05416	-0.207428	0.501988	-0.123166	-0.0735905	0.690115	0.132462	-0.0355006	-0.0180138	-0.103206	0.128309	0.101952	0.0446941	0.204669	0.0101996	-0.0180289	-0.140455	-0.069977	-0.139893	-0.107126	-0.175494	0.0452024	0.447345	1.69088	0.222256	-0.29813	0.136299	0.848566	1.59515
0.99	0.0315659	0.0574134	0.0433475	1.03874	1.05308	-0.207314	0.489927	-0.114896	-0.0813759	0.609286	0.128807	8.28952e-05	-0.0180139	-0.116612	0.122026	0.0978912	0.0475947	0.2221	0.0210433	-0.018029	-0.141612	-0.063626	-0.141455	-0.112704	-0.17547	0.0433689	0.439629	1.68799	0.23244	-0.300153	0.133754	0.866945	1.59224
1	0.0324347	0.0523085	0.0448157	1.05096	1.05188	-0.207139	0.475512	-0.106374	-0.0911359	0.525995	0.123889	0.0368148	-0.0180139	-0.130496	0.115444	0.0929504	0.0503684	0.239855	0.0329509	-0.0180291	-0.142685	-0.0572074	-0.143001	-0.118248	-0.175509	0.0418497	0.432576	1.68522	0.241388	-0.302353	0.132038	0.885502	1.58951
1.01	0.0333162	0.0471153	0.0463875	1.06334	1.05053	-0.206904	0.459529	-0.0975862	-0.102785	0.442017	0.118578	0.0737586	-0.018014	-0.144457	0.108526	0.0871217	0.0534525	0.258064	0.0459904	-0.0180292	-0.143551	-0.0507275	-0.144715	-0.123706	-0.175559	0.0406949	0.426167	1.68248	0.249069	-0.304772	0.130991	0.904214	1.58711
1.02	0.0340519	0.0418754	0.0481632	1.07585	1.04903	-0.206617	0.443005	-0.0885664	-0.115927	0.359612	0.113758	0.10984	-0.0180141	-0.158033	0.101279	0.0804206	0.0573295	0.276799	0.0601251	-0.0180292	-0.144072	-0.0442199	-0.146715	-0.129003	-0.175566	0.0398787	0.420367	1.67968	0.255482	-0.307425	0.13045	0.92301	1.58521
1.03	0.0344911	0.0366463	0.0501711	1.08847	1.04738	-0.206285	0.427111	-0.0794207	-0.129885	0.281405	0.110263	0.143913	-0.0180142	-0.170766	0.0937536	0.0729408	0.062466	0.296018	0.075133	-0.0180293	-0.144134	-0.0377377	-0.149048	-0.134039	-0.17548	0.0392993	0.415134	1.67678	0.260661	-0.310284	0.130262	0.941769	1.58393
1.04	0.0345255	0.0314915	0.05237	1.10117	1.04559	-0.205908	0.413009	-0.070324	-0.1438	0.210154	0.108803	0.174887	-0.0180143	-0.18227	0.0860412	0.0648737	0.0692623	0.31554	0.0905859	-0.0180294	-0.14368	-0.0313356	-0.15168	-0.138703	-0.175268	0.0388016	0.41042	1.67378	0.264669	-0.313279	0.130272	0.960326	1.58338
1.05	0.0341247	0.0264585	0.0546681	1.11393	1.04369	-0.205489	0.401664	-0.0614938	-0.156778	0.148408	0.109905	0.201886	-0.0180143	-0.192292	0.0782425	0.0564766	0.0780193	0.335055	0.105916	-0.0180295	-0.142727	-0.0250488	-0.154516	-0.142884	-0.174929	0.0382154	0.406189	1.67077	0.267584	-0.31629	0.13033	0.978488	1.5836
1.06	0.0333524	0.0215503	0.0569534	1.12672	1.04172	-0.20503	0.393646	-0.0531386	-0.168043	0.0981205	0.113834	0.224395	-0.0180144	-0.200739	0.0704345	0.0480028	0.0889264	0.354173	0.120544	-0.0180295	-0.141372	-0.0188715	-0.157425	-0.146498	-0.174493	0.0373966	0.402419	1.66782	0.269485	-0.319158	0.130289	0.996045	1.58462
1.07	0.0323494	0.0167118	0.0591319	1.13954	1.03975	-0.204529	0.388963	-0.0453852	-0.177033	0.0602582	0.120522	0.242326	-0.0180145	-0.207686	0.062628	0.0396216	0.102067	0.372479	0.134029	-0.0180296	-0.139763	-0.012739	-0.160272	-0.149505	-0.17402	0.036257	0.399102	1.66503	0.270427	-0.321693	0.130012	1.01279	1.58643
1.08	0.03131	0.011842	0.0611667	1.15243	1.03782	-0.203987	0.38698	-0.0382115	-0.183409	0.0345514	0.129501	0.255943	-0.0180146	-0.213353	0.0547407	0.0313734	0.117427	0.389576	0.146149	-0.0180297	-0.138069	-0.00652085	-0.162947	-0.151934	-0.173586	0.0347753	0.396244	1.66245	0.270426	-0.323697	0.129387	1.02852	1.58897
1.09	0.0304583	0.00680564	0.0630926	1.16543	1.03599	-0.203409	0.386507	-0.0314283	-0.186999	0.0195448	0.139905	0.265696	-0.0180147	-0.218057	0.0466065	0.0231975	0.134901	0.405074	0.156878	-0.0180298	-0.13643	-4.43682e-05	-0.165381	-0.153886	-0.173264	0.0329906	0.393859	1.66012	0.269454	-0.32499	0.128346	1.04304	1.59217
1.1	0.0300333	0.00143854	0.0649974	1.17861	1.03432	-0.202798	0.386072	-0.0247094	-0.187769	0.0129983	0.150573	0.272039	-0.0180148	-0.222178	0.0379944	0.0149715	0.154315	0.418581	0.166307	-0.0180299	-0.134955	0.00688759	-0.167553	-0.155502	-0.173118	0.0309912	0.39196	1.65806	0.267448	-0.325428	0.126872	1.05618	1.59594
1.11	0.030266	-0.00444352	0.066993	1.19204	1.03286	-0.20216	0.38423	-0.0176404	-0.185817	0.0123766	0.160197	0.275322	-0.0180149	-0.226096	0.0286277	0.00653787	0.175475	0.429689	0.174588	-0.01803	-0.133729	0.0144821	-0.169475	-0.156932	-0.173196	0.0288996	0.390556	1.65627	0.264325	-0.324924	0.124997	1.06777	1.60018
1.12	0.0313502	-0.011029	0.0691883	1.20578	1.03164	-0.201498	0.379819	-0.00977416	-0.181388	0.0152712	0.16749	0.275759	-0.0180149	-0.230115	0.0182009	-0.00228582	0.198218	0.437977	0.181897	-0.01803	-0.132796	0.0229434	-0.171185	-0.158308	-0.173524	0.0268545	0.389645	1.65475	0.260005	-0.323445	0.122802	1.07768	1.60477
1.13	0.0334074	-0.018501	0.0716689	1.21986	1.0307	-0.200808	0.372139	-0.000692408	-0.174876	0.0196852	0.171315	0.273452	-0.018015	-0.234387	0.00639906	-0.0117039	0.222487	0.443025	0.18843	-0.0180301	-0.132153	0.0324535	-0.172727	-0.159722	-0.174108	0.024992	0.389211	1.65348	0.254429	-0.321018	0.120411	1.08576	1.60956
1.14	0.0364532	-0.0270151	0.0744821	1.23429	1.03004	-0.200085	0.361023	0.00994137	-0.166792	0.0241707	0.170776	0.268432	-0.0180151	-0.23884	-0.00708461	-0.0219327	0.248382	0.44443	0.194409	-0.0180302	-0.131721	0.0431537	-0.174138	-0.161223	-0.174933	0.023428	0.389227	1.65247	0.247581	-0.317709	0.117983	1.09188	1.61441
1.15	0.040371	-0.0366824	0.077628	1.24904	1.02964	-0.199312	0.346833	0.0223386	-0.157717	0.0278431	0.16529	0.26071	-0.0180152	-0.243132	-0.0225274	-0.0331734	0.276193	0.441824	0.20008	-0.0180303	-0.131336	0.0551274	-0.17543	-0.162818	-0.17597	0.0222437	0.389663	1.65169	0.239498	-0.313618	0.115695	1.09591	1.61915
1.16	0.0448855	-0.0475619	0.0810561	1.26405	1.02948	-0.198477	0.330387	0.0365642	-0.14823	0.0303132	0.154626	0.250316	-0.0180153	-0.246635	-0.0401546	-0.0455616	0.306407	0.434883	0.205693	-0.0180304	-0.130739	0.068388	-0.176582	-0.16448	-0.17718	0.021474	0.39049	1.65111	0.230275	-0.308853	0.113738	1.09774	1.62366
1.17	0.0494853	-0.0596563	0.0846614	1.27926	1.0295	-0.197564	0.31281	0.0525378	-0.138849	0.0315836	0.138955	0.237336	-0.0180154	-0.24849	-0.0601214	-0.0590993	0.339675	0.423332	0.211447	-0.0180305	-0.129622	0.0828805	-0.177527	-0.166154	-0.178521	0.0211022	0.391688	1.65072	0.220066	-0.303521	0.112291	1.09726	1.62781
1.18	0.0536268	-0.0729057	0.088275	1.29457	1.02965	-0.196562	0.295415	0.0700517	-0.129983	0.0319125	0.11887	0.221954	-0.0180155	-0.247626	-0.082495	-0.0735839	0.376716	0.406938	0.217417	-0.0180306	-0.127586	0.098496	-0.178163	-0.16777	-0.179956	0.0210618	0.39325	1.65049	0.209079	-0.297711	0.111512	1.0944	1.63155
1.19	0.0567441	-0.0872099	0.0916997	1.30987	1.02986	-0.195461	0.279497	0.0888149	-0.121915	0.0317064	0.095386	0.204498	-0.0180156	-0.242888	-0.10722	-0.0885534	0.418209	0.385504	0.223482	-0.0180306	-0.124207	0.115079	-0.178359	-0.169242	-0.181462	0.0212458	0.395179	1.65043	0.197549	-0.291487	0.111516	1.08912	1.63488
1.2	0.0582961	-0.102431	0.0947308	1.32508	1.03009	-0.194255	0.26616	0.108491	-0.114806	0.0314327	0.0698911	0.185461	-0.0180157	-0.233189	-0.134094	-0.103271	0.464667	0.35887	0.229266	-0.0180307	-0.119115	0.132443	-0.177973	-0.170467	-0.183031	0.0215248	0.397487	1.65055	0.185727	-0.284891	0.112363	1.08142	1.63788
1.21	0.0578588	-0.11839	0.0971829	1.3401	1.03029	-0.192952	0.256179	0.128722	-0.108726	0.031548	0.0440497	0.165524	-0.0180158	-0.217682	-0.162742	-0.116764	0.516317	0.326929	0.234131	-0.0180308	-0.112097	0.150379	-0.176876	-0.171314	-0.18467	0.0217685	0.400185	1.65091	0.173861	-0.277942	0.114045	1.07135	1.64065
1.22	0.0552159	-0.134855	0.0989204	1.35486	1.03044	-0.191565	0.249879	0.149146	-0.103679	0.0324394	0.0196438	0.145546	-0.0180158	-0.195914	-0.192592	-0.127925	0.573001	0.289665	0.237224	-0.0180309	-0.103171	0.168649	-0.174975	-0.171622	-0.186398	0.0218702	0.403277	1.65157	0.162173	-0.270656	0.116488	1.05903	1.64338
1.23	0.0504319	-0.151529	0.0998837	1.36931	1.03053	-0.190121	0.247071	0.169393	-0.0996323	0.0343705	-0.00162293	0.126519	-0.0180159	-0.167939	-0.222887	-0.135659	0.634132	0.247218	0.237579	-0.018031	-0.0926496	0.18697	-0.172227	-0.171203	-0.188235	0.0217679	0.406755	1.65261	0.150852	-0.263047	0.119558	1.04459	1.64622
1.24	0.043935	-0.168033	0.100088	1.3834	1.0306	-0.188654	0.247055	0.189086	-0.0965164	0.0374254	-0.0183311	0.10948	-0.018016	-0.134342	-0.25272	-0.139054	0.698704	0.199973	0.234258	-0.0180311	-0.081108	0.205009	-0.168657	-0.169857	-0.190194	0.0214629	0.410593	1.6541	0.140036	-0.25515	0.123078	1.02825	1.64931
